<?xml version="1.0" standalone="no"?>
<!DOCTYPE svg PUBLIC "-//W3C//DTD SVG 20010904//EN"
 "http://www.w3.org/TR/2001/REC-SVG-20010904/DTD/svg10.dtd">
<svg version="1.0" xmlns="http://www.w3.org/2000/svg"
 width="260.000000pt" height="260.000000pt" viewBox="0 0 260.000000 260.000000"
 preserveAspectRatio="xMidYMid meet">
<metadata>
Created by potrace 1.11, written by Peter Selinger 2001-2013
</metadata>
<g transform="translate(0.000000,260.000000) scale(0.100000,-0.100000)"
fill="#000000" stroke="none">
<path d="M0 1300 l0 -1300 1300 0 1300 0 0 1300 0 1300 -1300 0 -1300 0 0
-1300z m1470 1177 c36 -3 102 -15 148 -26 134 -35 320 -114 222 -95 -19 4 -38
12 -41 17 -4 6 -16 1 -29 -10 -21 -21 -21 -21 -93 -1 -89 24 -123 28 -267 31
-63 1 -121 6 -127 10 -7 5 -13 4 -13 -1 0 -6 -17 -12 -37 -15 -67 -8 -216 -54
-297 -91 -101 -46 -223 -127 -308 -205 -37 -34 -69 -57 -73 -51 -9 15 -25 12
-25 -6 0 -8 5 -12 10 -9 24 15 6 -19 -49 -92 -32 -43 -61 -88 -65 -100 -4 -13
-15 -23 -24 -24 -10 0 -12 -3 -5 -6 9 -3 9 -9 2 -21 -5 -9 -23 -48 -38 -87
l-28 -70 -67 0 c-57 0 -66 2 -66 18 0 30 67 183 114 260 l44 72 58 2 c68 2
104 10 104 22 0 5 -6 8 -12 8 -24 -3 -108 14 -108 21 0 18 120 139 194 196
264 205 523 279 876 253z m200 -172 c47 -15 87 -30 90 -34 3 -3 12 -7 20 -9
36 -7 126 -58 198 -111 88 -65 183 -164 240 -249 43 -62 116 -210 127 -255 l7
-27 -96 3 c-53 1 -96 5 -97 7 -2 20 16 40 32 35 11 -4 19 -2 19 4 0 6 -9 11
-20 11 -11 0 -20 5 -20 10 0 6 -8 10 -17 10 -17 -1 -17 -1 0 -14 13 -10 14
-15 4 -19 -8 -3 -27 23 -52 71 -42 81 -54 98 -122 173 -47 50 -49 55 -30 62 6
2 2 2 -10 1 -12 -2 -25 0 -28 6 -3 5 3 10 14 10 11 0 23 5 26 10 4 6 -8 10
-30 10 -27 0 -53 12 -100 45 -138 99 -297 152 -483 162 -75 4 -118 11 -127 20
-17 16 -65 1 -65 -20 0 -9 -16 -17 -41 -21 -22 -4 -67 -17 -100 -31 -33 -13
-68 -21 -77 -18 -9 3 -14 2 -10 -2 10 -11 -110 -84 -138 -85 -21 0 -67 -43
-77 -72 -6 -18 -37 -25 -37 -9 0 14 131 151 173 182 33 24 44 27 91 22 34 -4
56 -2 60 6 7 11 -21 15 -69 12 -18 -2 -18 0 5 18 37 30 170 84 207 85 17 0 30
3 27 7 -2 5 12 11 33 14 21 4 43 8 48 11 6 2 84 2 175 0 148 -3 174 -6 250
-31z m279 8 c25 -14 48 -29 51 -32 3 -3 24 -19 48 -35 23 -16 42 -32 42 -37 0
-23 -28 -16 -98 23 -42 25 -102 55 -132 67 -80 33 -82 41 -15 41 45 0 69 -6
104 -27z m280 -234 c18 -22 29 -39 23 -39 -6 0 -21 13 -34 28 -13 15 -31 31
-41 35 -9 3 -17 11 -17 16 0 18 36 -2 69 -40z m-729 -4 c84 -20 160 -47 160
-57 0 -4 -17 -8 -37 -8 -48 0 -78 -17 -33 -18 17 0 37 -5 43 -10 7 -5 21 -6
32 -1 38 15 66 9 113 -23 101 -69 243 -226 214 -236 -20 -6 -13 -19 13 -26 16
-4 32 -21 45 -46 l20 -40 -24 0 c-18 0 -31 11 -49 43 -14 23 -52 72 -86 109
l-61 66 27 10 c26 10 24 10 -19 11 -27 1 -48 4 -48 9 0 4 -10 12 -23 18 -12 6
-58 31 -102 54 -44 24 -89 44 -100 46 -11 1 -42 8 -70 14 -58 14 -265 22 -280
11 -5 -4 -35 -13 -66 -20 -72 -15 -179 -67 -249 -120 -30 -22 -61 -41 -69 -41
-8 0 -12 -3 -8 -6 3 -3 -16 -33 -43 -65 -93 -112 -149 -238 -169 -379 -5 -41
-15 -76 -22 -79 -8 -2 -8 -5 0 -10 6 -4 16 -45 21 -92 13 -103 38 -182 88
-272 42 -77 141 -206 158 -207 6 0 17 -7 24 -15 10 -12 7 -16 -15 -25 -25 -10
-33 -7 -74 28 -71 60 -138 148 -187 247 -66 134 -79 195 -78 360 0 125 3 149
28 223 20 61 33 85 49 92 19 7 19 9 4 9 -17 1 -16 5 9 49 45 78 95 142 110
142 9 0 13 4 10 9 -8 13 113 121 135 121 10 0 22 6 26 13 19 29 39 36 77 27
43 -10 95 2 63 15 -9 4 -28 4 -42 1 -48 -12 -25 12 33 33 135 50 324 65 452
36z m878 -552 c6 -32 14 -86 18 -120 6 -54 4 -63 -10 -63 -9 0 -16 -4 -16 -10
0 -5 7 -10 15 -10 18 0 19 -42 5 -145 -11 -75 -46 -212 -59 -233 -5 -8 -28
-15 -51 -18 -49 -4 -55 -8 -45 -24 5 -8 21 -10 41 -7 19 3 34 3 34 0 0 -12
-63 -129 -92 -171 -74 -107 -259 -281 -300 -282 -9 0 -21 -6 -25 -14 -12 -20
-123 -72 -218 -101 -79 -24 -205 -47 -214 -39 -2 2 1 4 7 4 7 0 12 5 12 10 0
6 -6 10 -14 10 -8 0 -16 4 -18 10 -5 14 -50 17 -55 3 -3 -7 2 -13 10 -13 8 0
20 -7 27 -15 11 -13 5 -15 -46 -15 -78 0 -176 17 -185 31 -4 7 -15 9 -25 5
-22 -9 -86 12 -78 26 4 6 -1 8 -14 4 -23 -8 -134 44 -212 98 l-45 31 55 7 c43
6 66 3 105 -12 95 -36 170 -53 270 -59 161 -10 302 18 452 90 46 21 87 39 93
39 5 0 10 4 10 8 0 5 29 32 65 60 35 29 88 80 116 115 29 34 59 61 68 60 9 -1
11 0 4 3 -7 3 4 33 33 88 39 74 80 173 88 216 2 8 7 33 11 55 10 46 11 63 13
128 2 34 6 47 17 47 8 0 15 2 15 4 0 2 3 12 7 22 5 13 3 16 -10 11 -21 -8 -25
-1 -32 59 -4 27 -11 67 -16 89 -11 50 -11 57 -1 52 4 -2 39 1 77 8 107 20 101
22 113 -42z m-2071 -18 c-6 -27 -12 -53 -16 -57 -3 -4 -4 -71 -1 -148 4 -119
3 -143 -10 -151 -13 -7 -13 -8 2 -9 11 0 18 -13 23 -42 36 -220 196 -488 375
-630 43 -35 75 -65 69 -66 -5 -2 -7 -8 -4 -12 3 -5 11 -7 18 -4 8 3 51 -15 98
-40 88 -47 233 -99 309 -111 65 -10 81 -15 75 -26 -4 -5 -2 -9 4 -9 5 0 13 5
17 11 4 7 24 9 58 4 78 -11 176 -14 171 -5 -2 4 30 13 73 20 150 24 327 95
456 182 56 38 70 44 106 48 10 1 11 3 3 7 -15 5 -18 23 -4 23 19 0 155 150
206 228 16 25 35 42 47 42 16 0 17 -3 7 -22 -7 -13 -15 -25 -18 -28 -3 -3 -14
-22 -25 -42 -10 -20 -27 -46 -37 -57 -11 -11 -19 -24 -19 -28 0 -5 -34 -46
-76 -91 -140 -151 -314 -263 -508 -327 -111 -36 -152 -43 -140 -24 4 8 -1 9
-16 4 -15 -5 -20 -4 -16 4 4 6 2 11 -4 11 -7 0 -14 -9 -17 -20 -7 -28 -32 -33
-164 -33 -89 0 -122 4 -139 16 -17 12 -29 13 -50 5 -56 -19 -282 56 -430 142
-124 73 -323 247 -292 258 7 2 12 8 12 14 0 5 -8 7 -19 3 -21 -6 -46 18 -36
35 4 6 3 10 -2 9 -20 -3 -27 2 -13 11 13 8 11 11 -7 16 -22 6 -36 24 -84 112
-20 37 -21 45 -9 52 12 8 10 10 -7 10 -13 0 -23 6 -23 13 0 6 -6 23 -13 38
-11 21 -47 116 -47 125 0 1 8 5 18 7 15 4 14 6 -5 12 -31 10 -43 71 -50 255
-5 138 6 284 23 311 2 4 35 7 72 6 l68 -2 -9 -50z m1793 17 c24 -92 34 -173
17 -151 -6 7 -57 170 -57 180 0 5 7 9 15 9 8 0 19 -16 25 -38z m333 -692 c-3
-11 -12 -20 -19 -20 -17 0 -17 5 -2 29 15 24 28 18 21 -9z m-1443 -202 c25
-14 68 -37 95 -52 l50 -25 -44 -1 c-33 0 -65 11 -132 47 -48 25 -86 49 -84 52
9 15 73 3 115 -21z m-250 -23 c0 -8 7 -15 17 -15 9 0 30 -11 47 -24 17 -12 46
-31 64 -40 41 -21 38 -26 -21 -31 -44 -4 -47 -3 -96 51 -56 61 -61 74 -31 74
11 0 20 -7 20 -15z"/>
<path d="M925 2360 c-36 -9 -33 -11 25 -14 51 -4 73 2 64 15 -6 10 -46 10 -89
-1z"/>
<path d="M778 2303 c7 -3 16 -2 19 1 4 3 -2 6 -13 5 -11 0 -14 -3 -6 -6z"/>
<path d="M310 1730 c0 -6 7 -10 15 -10 8 0 15 2 15 4 0 2 -7 6 -15 10 -8 3
-15 1 -15 -4z"/>
<path d="M1516 2304 c-10 -27 3 -30 27 -6 l21 22 -21 0 c-11 0 -24 -7 -27 -16z"/>
<path d="M1090 2270 c-12 -8 -9 -10 13 -10 15 0 27 5 27 10 0 13 -20 13 -40 0z"/>
<path d="M1790 2129 c0 -5 5 -7 10 -4 6 3 10 8 10 11 0 2 -4 4 -10 4 -5 0 -10
-5 -10 -11z"/>
<path d="M1860 2110 c0 -5 5 -10 10 -10 6 0 10 5 10 10 0 6 -4 10 -10 10 -5 0
-10 -4 -10 -10z"/>
<path d="M2034 1946 c16 -7 38 -11 48 -8 25 6 21 8 -32 15 -43 6 -44 5 -16 -7z"/>
<path d="M2130 1790 c0 -5 -7 -10 -17 -10 -9 0 -14 -3 -10 -6 8 -8 47 5 47 17
0 5 -4 9 -10 9 -5 0 -10 -4 -10 -10z"/>
<path d="M1177 2041 c-10 -12 -9 -14 6 -8 10 4 34 7 53 7 19 0 34 5 34 10 0
16 -79 8 -93 -9z"/>
<path d="M568 1163 c6 -2 18 -2 25 0 6 3 1 5 -13 5 -14 0 -19 -2 -12 -5z"/>
<path d="M588 1103 c7 -3 16 -2 19 1 4 3 -2 6 -13 5 -11 0 -14 -3 -6 -6z"/>
<path d="M740 820 c0 -5 5 -10 10 -10 6 0 10 5 10 10 0 6 -4 10 -10 10 -5 0
-10 -4 -10 -10z"/>
<path d="M1725 460 c-13 -6 -15 -9 -5 -9 8 0 22 4 30 9 18 12 2 12 -25 0z"/>
<path d="M990 419 c32 -4 59 -4 65 2 5 5 -16 9 -56 8 l-64 -1 55 -9z"/>
<path d="M1610 370 c-8 -5 -12 -12 -9 -15 8 -8 89 6 89 15 0 10 -63 11 -80 0z"/>
<path d="M1730 376 c0 -2 7 -6 15 -10 8 -3 15 -1 15 4 0 6 -7 10 -15 10 -8 0
-15 -2 -15 -4z"/>
<path d="M1315 350 c-19 -8 -19 -9 2 -9 12 -1 25 4 28 9 7 12 -2 12 -30 0z"/>
<path d="M228 1383 c6 -2 18 -2 25 0 6 3 1 5 -13 5 -14 0 -19 -2 -12 -5z"/>
<path d="M205 1140 c3 -5 10 -10 16 -10 5 0 9 5 9 10 0 6 -7 10 -16 10 -8 0
-12 -4 -9 -10z"/>
<path d="M315 740 c3 -5 12 -7 20 -3 21 7 19 13 -6 13 -11 0 -18 -4 -14 -10z"/>
</g>
</svg>
